<?xml version="1.0" encoding="UTF-8" standalone="no"?>
<svg
   xmlns:dc="http://purl.org/dc/elements/1.1/"
   xmlns:cc="http://creativecommons.org/ns#"
   xmlns:rdf="http://www.w3.org/1999/02/22-rdf-syntax-ns#"
   xmlns:svg="http://www.w3.org/2000/svg"
   xmlns="http://www.w3.org/2000/svg"
   id="svg863"
   version="1.1"
   viewBox="0 0 59.999999 60"
   height="60mm"
   width="60mm">
  <defs
     id="defs857" />
  <metadata
     id="metadata860">
    <rdf:RDF>
      <cc:Work
         rdf:about="">
        <dc:format>image/svg+xml</dc:format>
        <dc:type
           rdf:resource="http://purl.org/dc/dcmitype/StillImage" />
        <dc:title></dc:title>
      </cc:Work>
    </rdf:RDF>
  </metadata>
  <g
     transform="translate(-144.04059,-219.73206)"
     id="layer1">
    <ellipse
       ry="28.477222"
       rx="28.477219"
       cy="249.73206"
       cx="174.04059"
       style="display:block;fill:#ffffff;fill-opacity:1;fill-rule:evenodd;stroke:#ff8400;stroke-width:3.04555;stroke-linejoin:round;stroke-miterlimit:4;stroke-dasharray:none;stroke-opacity:1"
       id="path3504" />
    <path
       id="path4446"
       d="m 164.88364,270.04464 -0.71112,0.64178 0.32923,-1.17016 0.32923,-1.17017 2.51811,-5.48896 2.51811,-5.48896 -1.09048,-0.0543 -1.09048,-0.0543 0.67674,-1.60501 0.67673,-1.60502 2.87079,-4.3051 2.88766,-4.38257 0.0169,-0.0774 -0.37951,-0.28976 -0.37949,-0.28975 -1.53467,-0.59482 -1.55461,-0.63068 2.61225,-5.73613 2.67639,-5.78301 0.0442,-0.0827 7.33508,0.4915 7.35389,0.52532 -0.51361,0.81842 -0.53242,0.78458 -3.92416,4.19068 -4.64942,4.9614 -0.72525,0.77072 1.25782,0.56611 1.28418,0.61354 -3.87787,5.39084 -3.90425,5.34341 0.0817,0.0507 0.64644,0.28403 0.56475,0.23328 -0.051,0.0834 -1.67855,2.07031 -1.6275,1.98688 -3.87231,4.1801 -3.87232,4.1801 z"
       style="fill:#d45500;stroke-width:0.259937" />
    <path
       id="path4446-4"
       d="m 162.10288,270.98929 -0.71113,0.64179 0.32922,-1.17017 0.32925,-1.17016 2.51811,-5.48896 2.51811,-5.48896 -1.09049,-0.0543 -1.09047,-0.0543 0.67673,-1.60502 0.67674,-1.60503 2.87077,-4.30509 2.88766,-4.38257 0.0169,-0.0774 -0.3795,-0.28976 -0.3795,-0.28976 -1.53466,-0.59482 -1.55461,-0.63067 2.61225,-5.73614 2.67639,-5.78299 0.0442,-0.0827 7.33509,0.4915 7.35388,0.52532 -0.51361,0.81841 -0.53243,0.78457 -3.92416,4.19069 -4.6494,4.96141 -0.72525,0.77071 1.25781,0.56611 1.28419,0.61354 -3.87788,5.39085 -3.90425,5.34341 0.0817,0.0507 0.64644,0.28402 0.56477,0.23328 -0.051,0.0834 -1.67853,2.07033 -1.62751,1.98686 -3.87232,4.1801 -3.87231,4.1801 z"
       style="fill:#ff7f2a;stroke-width:0.259937" />
  </g>
</svg>
